# xmcd CD database file
#
# Track frame offsets:
#	183
#	21840
#	45418
#	68485
#	87858
#	106240
#	125228
#	153613
#	172798
#	188193
#	202155
#
# Disc length: 2722 seconds
#
# Revision: 1
# Processed by: cddbd v1.5.2PL0 Copyright (c) Steve Scherf et al.
# Submitted via: CDex 1.70beta2
#
DISCID=8e0aa00b
DTITLE=Mimi Verderame - Speed Limit
DYEAR=1989
DGENRE=Jazz
TTITLE0=Ma P'tite Samba
TTITLE1=Pick Mi Ben Pick
TTITLE2=Baisers De Pascale
TTITLE3=Wonderful Garden
TTITLE4=Allez - Gros
TTITLE5=Alma Triste
TTITLE6=C. P. Blues
TTITLE7=Apocalypso
TTITLE8=Speed Limit
TTITLE9=Song For My Brother
TTITLE10=Daviana
EXTD=YEAR: 1989
EXTT0=
EXTT1=
EXTT2=
EXTT3=
EXTT4=
EXTT5=
EXTT6=
EXTT7=
EXTT8=
EXTT9=
EXTT10=
PLAYORDER=
